<svg id="Layer_1" xmlns="http://www.w3.org/2000/svg" viewBox="0 0 122.04 49.66"><defs><style>.cls-1{fill:#231f20;}.cls-2{fill:#002f87;}</style></defs><g id="Jennmar_Corp"><path d="M0,49.6l.54-2.53h.35l.42,2.09h.03l1.31-2.09h.39l-.54,2.53h-.3l.41-1.93h-.02l-1.2,1.91h-.27l-.39-1.91h-.02l-.41,1.93h-.3Z"/><path d="M4.2,49.6l.54-2.53h.32l-.54,2.53h-.32Z"/><path d="M6.22,49.6l.54-2.53h.31l.93,2.02h.03l.43-2.02h.32l-.54,2.53h-.32l-.93-2.01h-.03l-.43,2.01h-.32Z"/><path d="M9.94,49.6l.54-2.53h.32l-.54,2.53h-.32Z"/><path d="M11.95,49.6l.54-2.53h.31l.93,2.02h.03l.43-2.02h.32l-.54,2.53h-.32l-.93-2.01h-.03l-.43,2.01h-.32Z"/><path d="M17.99,48.66c-.07.33-.2.58-.41.75-.2.17-.46.26-.77.26-.15,0-.29-.03-.41-.08-.12-.05-.23-.12-.32-.21s-.16-.2-.2-.33-.07-.27-.07-.43.01-.3.05-.44c.03-.14.08-.27.13-.39.06-.12.13-.23.2-.32.08-.1.17-.18.27-.24s.2-.12.32-.15c.11-.04.24-.05.37-.05s.25.02.37.06c.11.04.21.09.29.16s.15.15.2.25c.05.1.08.2.09.32v.06h-.32c0-.09-.03-.16-.06-.23-.03-.07-.08-.13-.14-.18s-.13-.09-.2-.11c-.08-.03-.16-.04-.26-.04s-.18.01-.26.04-.16.07-.24.13-.14.12-.2.2c-.06.08-.11.16-.15.26-.04.09-.08.2-.1.31s-.04.23-.04.35.02.23.05.33.08.18.14.25c.06.07.14.12.23.16.09.04.19.05.3.05.1,0,.19-.02.28-.05s.17-.08.24-.14c.07-.06.13-.13.18-.21.05-.08.08-.18.1-.28l.02-.1h-.7l.06-.28h1.02l-.07.34Z"/><path d="M25.61,49.6l.54-2.53h.32l-.54,2.53h-.32Z"/><path d="M27.63,49.6l.54-2.53h.31l.93,2.02h.03l.43-2.02h.32l-.54,2.53h-.32l-.93-2.01h-.03l-.43,2.01h-.32Z"/><path d="M31.35,49.6l.54-2.53h1.54l-.06.28h-1.21l-.19.87h1.11l-.06.28h-1.11l-.23,1.1h-.32Z"/><path d="M34.99,47.07h.87c.11,0,.22.01.31.05s.17.08.24.14c.06.06.12.13.15.21s.05.18.05.28-.01.19-.05.28c-.03.09-.08.16-.14.24-.06.07-.13.13-.21.18s-.18.09-.28.11l.36,1.05h-.34l-.33-1h-.64l-.21,1h-.32l.53-2.53ZM35.05,48.32h.61c.09,0,.18-.01.25-.04.08-.03.14-.06.2-.11.05-.05.1-.11.13-.17s.05-.14.05-.22c0-.06-.01-.12-.03-.17-.02-.05-.05-.1-.09-.13-.04-.04-.08-.06-.14-.08-.05-.02-.11-.03-.18-.03h-.6l-.21.96Z"/><path d="M39.41,48.88h-1.01l-.4.72h-.34l1.48-2.53h.29l.39,2.53h-.31l-.1-.72ZM38.55,48.61h.83l-.16-1.12h-.03l-.63,1.12Z"/><path d="M41.64,48.9c.01.07.04.14.08.2.04.06.09.11.14.15.06.04.12.07.19.09.07.02.15.03.24.03s.17-.01.24-.03.13-.05.19-.09.09-.09.12-.14c.03-.05.04-.11.04-.18,0-.1-.04-.19-.11-.26-.07-.07-.19-.14-.35-.19l-.24-.08c-.17-.06-.31-.15-.4-.26-.1-.11-.14-.24-.14-.39,0-.1.02-.2.07-.29s.11-.16.19-.23c.08-.06.18-.11.28-.15s.23-.05.35-.05c.12,0,.23.02.34.05.1.04.19.09.27.15s.14.14.19.23c.05.09.08.19.09.3h-.32c-.03-.14-.1-.25-.2-.33-.1-.08-.23-.12-.39-.12-.08,0-.15.01-.21.03-.06.02-.12.05-.17.09-.05.04-.09.08-.11.13s-.04.1-.04.16c0,.09.03.17.1.24.06.07.17.13.31.18l.23.08c.21.08.36.17.46.28s.15.25.15.4c0,.11-.02.22-.07.32-.05.09-.11.18-.19.24s-.18.12-.3.16c-.11.04-.24.06-.38.06-.13,0-.25-.02-.36-.05-.11-.04-.2-.09-.28-.15-.08-.06-.15-.14-.2-.24-.05-.09-.09-.2-.1-.32h.32Z"/><path d="M45.2,49.6l.48-2.24h-.81l.06-.28h1.94l-.06.28h-.81l-.48,2.24h-.33Z"/><path d="M48.4,47.07h.87c.11,0,.22.01.31.05s.17.08.24.14c.06.06.12.13.15.21.04.08.05.18.05.28s-.01.19-.05.28c-.03.09-.08.16-.14.24s-.13.13-.21.18-.18.09-.28.11l.36,1.05h-.34l-.33-1h-.64l-.21,1h-.32l.53-2.53ZM48.46,48.32h.61c.09,0,.18-.01.25-.04.08-.03.14-.06.2-.11.05-.05.1-.11.13-.17s.05-.14.05-.22c0-.06-.01-.12-.03-.17-.02-.05-.05-.1-.09-.13-.04-.04-.08-.06-.14-.08-.05-.02-.11-.03-.18-.03h-.6l-.21.96Z"/><path d="M52.34,49.66c-.14,0-.27-.02-.38-.06-.11-.04-.2-.1-.28-.17s-.13-.15-.17-.25c-.04-.1-.06-.2-.06-.31,0-.04,0-.08,0-.11s.01-.08.02-.11l.33-1.58h.32l-.33,1.55s-.01.08-.02.12,0,.08,0,.11c0,.08.02.15.04.21.03.06.06.12.11.16.05.04.11.08.19.1.08.03.16.04.26.04.09,0,.18-.01.26-.04.08-.03.16-.07.22-.12s.12-.12.16-.2c.05-.08.08-.16.1-.26l.35-1.66h.32l-.37,1.73c-.03.14-.08.26-.14.36-.06.11-.14.2-.23.27-.09.08-.2.13-.33.17s-.26.05-.42.05Z"/><path d="M57.09,47.86c0-.08-.03-.16-.06-.23s-.08-.13-.14-.18-.13-.09-.2-.11c-.08-.03-.16-.04-.26-.04-.14,0-.26.03-.39.1-.12.06-.22.16-.31.27s-.16.25-.21.41-.08.33-.08.51c0,.12.01.23.05.32.03.1.08.18.14.24.06.07.13.12.22.15.09.04.18.05.29.05.09,0,.16-.01.24-.03.08-.02.15-.05.21-.09.06-.04.11-.08.16-.14.05-.05.08-.11.1-.18h.33c-.03.11-.08.21-.15.3-.06.09-.14.16-.24.23-.09.06-.2.11-.32.14s-.25.05-.38.05c-.15,0-.28-.03-.4-.08s-.23-.12-.31-.21-.15-.2-.2-.33c-.05-.13-.07-.27-.07-.42s.01-.3.05-.44c.03-.14.08-.27.13-.39.06-.12.13-.23.2-.33s.17-.18.27-.25.2-.12.32-.16.24-.05.37-.05c.14,0,.26.02.38.06s.22.1.3.18.15.16.2.26c.05.1.07.21.07.33h0s-.32.01-.32.01h0Z"/><path d="M59.17,49.6l.48-2.24h-.81l.06-.28h1.94l-.06.28h-.81l-.48,2.24h-.33Z"/><path d="M62.92,49.66c-.14,0-.27-.02-.38-.06s-.2-.1-.28-.17-.13-.15-.17-.25c-.04-.1-.06-.2-.06-.31,0-.04,0-.08,0-.11s.01-.08.02-.11l.33-1.58h.32l-.33,1.55s-.01.08-.02.12,0,.08,0,.11c0,.08.02.15.04.21.03.06.06.12.11.16.05.04.11.08.19.1.08.03.16.04.26.04.09,0,.18-.01.26-.04.08-.03.16-.07.22-.12s.12-.12.16-.2c.05-.08.08-.16.1-.26l.35-1.66h.32l-.37,1.73c-.03.14-.08.26-.14.36-.06.11-.14.2-.23.27-.09.08-.2.13-.33.17s-.26.05-.42.05Z"/><path d="M66.1,47.07h.87c.11,0,.22.01.31.05.09.03.17.08.24.14.06.06.12.13.15.21.04.08.05.18.05.28s-.01.19-.05.28c-.03.09-.08.16-.14.24s-.13.13-.21.18c-.08.05-.18.09-.28.11l.36,1.05h-.34l-.33-1h-.64l-.21,1h-.32l.53-2.53ZM66.16,48.32h.61c.09,0,.18-.01.25-.04.08-.03.14-.06.2-.11.05-.05.1-.11.13-.17.03-.07.05-.14.05-.22,0-.06-.01-.12-.03-.17s-.05-.1-.09-.13c-.04-.04-.08-.06-.14-.08-.05-.02-.11-.03-.18-.03h-.6l-.21.96Z"/><path d="M70.54,49.6h-1.57l.54-2.53h1.57l-.06.28h-1.25l-.18.81h1.18l-.06.28h-1.18l-.19.87h1.25l-.05.29Z"/><path d="M78.37,49.6l.54-2.53h.35l.42,2.09h.03l1.31-2.09h.39l-.54,2.53h-.3l.41-1.93h-.02l-1.2,1.91h-.26l-.39-1.91h-.02l-.41,1.93h-.3Z"/><path d="M84.12,48.88h-1.01l-.4.72h-.34l1.48-2.53h.29l.4,2.53h-.31l-.11-.72ZM83.26,48.61h.83l-.16-1.12h-.03l-.63,1.12Z"/><path d="M86.04,49.6l.54-2.53h.31l.93,2.02h.03l.43-2.02h.32l-.54,2.53h-.32l-.93-2.01h-.03l-.43,2.01h-.32Z"/><path d="M90.83,49.66c-.14,0-.27-.02-.38-.06-.11-.04-.2-.1-.27-.17s-.13-.15-.17-.25-.06-.2-.06-.31c0-.04,0-.08,0-.11s.01-.08.02-.11l.33-1.58h.32l-.33,1.55s-.01.08-.02.12,0,.08,0,.11c0,.08.02.15.04.21s.06.12.11.16c.05.04.11.08.19.1.08.03.16.04.26.04.09,0,.18-.01.26-.04.08-.03.16-.07.22-.12s.12-.12.16-.2c.05-.08.08-.16.1-.26l.35-1.66h.32l-.37,1.73c-.03.14-.08.26-.14.36-.06.11-.14.2-.23.27-.09.08-.2.13-.33.17s-.27.05-.43.05Z"/><path d="M93.48,49.6l.54-2.53h1.54l-.06.28h-1.21l-.19.87h1.11l-.06.28h-1.12l-.23,1.1h-.32Z"/><path d="M98.11,48.88h-1.01l-.4.72h-.34l1.48-2.53h.29l.4,2.53h-.31l-.11-.72ZM97.25,48.61h.83l-.16-1.12h-.03l-.63,1.12Z"/><path d="M102,47.86c0-.08-.03-.16-.06-.23-.03-.07-.08-.13-.14-.18s-.13-.09-.2-.11c-.08-.03-.16-.04-.26-.04-.14,0-.26.03-.39.1-.12.06-.22.16-.31.27s-.16.25-.21.41c-.05.16-.08.33-.08.51,0,.12.01.23.05.32.03.1.08.18.14.24s.13.12.22.15c.09.04.18.05.29.05.09,0,.16-.01.24-.03.08-.02.15-.05.21-.09.06-.04.11-.08.16-.14.04-.05.08-.11.1-.18h.33c-.03.11-.08.21-.15.3-.06.09-.14.16-.24.23-.09.06-.2.11-.32.14-.12.03-.25.05-.38.05-.15,0-.28-.03-.4-.08-.12-.05-.23-.12-.31-.21s-.15-.2-.2-.33c-.05-.13-.07-.27-.07-.42s.01-.3.05-.44c.03-.14.08-.27.13-.39.06-.12.13-.23.2-.33s.17-.18.27-.25.2-.12.32-.16c.11-.04.24-.05.37-.05.14,0,.26.02.38.06.12.04.22.1.3.18.09.08.15.16.2.26.05.1.07.21.07.33h0s-.32.01-.32.01h0Z"/><path d="M104.08,49.6l.48-2.24h-.81l.06-.28h1.94l-.06.28h-.81l-.48,2.24h-.33Z"/><path d="M107.83,49.66c-.14,0-.27-.02-.38-.06s-.2-.1-.28-.17-.13-.15-.17-.25c-.04-.1-.06-.2-.06-.31,0-.04,0-.08,0-.11s.01-.08.02-.11l.33-1.58h.32l-.33,1.55s-.01.08-.02.12,0,.08,0,.11c0,.08.02.15.04.21s.06.12.11.16.11.08.19.1c.08.03.16.04.26.04.09,0,.18-.01.26-.04.08-.03.16-.07.22-.12s.12-.12.16-.2c.05-.08.08-.16.1-.26l.35-1.66h.32l-.37,1.73c-.03.14-.08.26-.14.36-.06.11-.14.2-.23.27-.09.08-.2.13-.33.17s-.26.05-.42.05Z"/><path d="M111.02,47.07h.87c.11,0,.22.01.31.05.09.03.17.08.24.14.06.06.12.13.15.21s.05.18.05.28-.01.19-.05.28c-.03.09-.08.16-.14.24s-.13.13-.21.18c-.08.05-.18.09-.28.11l.36,1.05h-.35l-.33-1h-.64l-.21,1h-.32l.54-2.53ZM111.07,48.32h.61c.09,0,.18-.01.25-.04.08-.03.14-.06.2-.11.05-.05.1-.11.13-.17.03-.07.05-.14.05-.22,0-.06-.01-.12-.03-.17s-.05-.1-.09-.13c-.04-.04-.08-.06-.14-.08-.05-.02-.11-.03-.18-.03h-.6l-.21.96Z"/><path d="M113.88,49.6l.54-2.53h.32l-.54,2.53h-.32Z"/><path d="M115.9,49.6l.54-2.53h.31l.93,2.02h.03l.43-2.02h.32l-.54,2.53h-.32l-.93-2.01h-.03l-.43,2.01h-.32Z"/><path d="M121.94,48.66c-.07.33-.21.58-.41.75-.2.17-.46.26-.77.26-.15,0-.29-.03-.41-.08-.12-.05-.23-.12-.32-.21s-.16-.2-.2-.33-.07-.27-.07-.43.01-.3.05-.44.08-.27.13-.39c.06-.12.13-.23.2-.32.08-.1.17-.18.27-.24s.2-.12.32-.15c.11-.04.24-.05.37-.05s.25.02.37.06.21.09.29.16.15.15.2.25c.05.1.08.2.09.32v.06h-.32c0-.09-.03-.16-.06-.23-.03-.07-.08-.13-.14-.18s-.13-.09-.2-.11-.16-.04-.26-.04-.18.01-.26.04-.16.07-.24.13-.14.12-.2.2c-.06.08-.11.16-.15.26-.04.09-.08.2-.1.31s-.04.23-.04.35.02.23.05.33.08.18.14.25c.06.07.14.12.23.16.09.04.19.05.3.05.1,0,.19-.02.28-.05s.17-.08.24-.14.13-.13.18-.21c.05-.08.08-.18.1-.28l.02-.1h-.7l.06-.28h1.02l-.07.34Z"/><path class="cls-2" d="M4.17,38.76c0,.58.14,1.02.44,1.33s.7.44,1.19.44.91-.16,1.19-.47c.28-.3.42-.74.42-1.33v-8.59c0-.07.03-.14.09-.21.07-.07.14-.09.21-.09h3.63c.07,0,.14.03.21.09.07.07.09.14.09.21v8.4c0,1.65-.49,2.98-1.49,3.98s-2.45,1.49-4.33,1.49c-1.74,0-3.14-.39-4.21-1.21S0,40.9,0,39.55v-.82c0-.09.05-.19.14-.3s.19-.16.3-.16h3.42c.07,0,.14.05.21.12s.12.14.12.21l-.02.16Z"/><path class="cls-2" d="M19.53,38.46v1.86h7.63c.07,0,.14.05.21.11.07.07.12.14.12.21v2.89c0,.07-.03.14-.09.21-.07.07-.14.09-.21.09h-11.55c-.07,0-.14-.03-.19-.07-.05-.07-.07-.14-.07-.21v-13.4c0-.07.03-.14.07-.21.05-.07.12-.09.19-.09h11.45c.07,0,.14.05.21.12.07.07.12.14.12.21v2.89c0,.07-.02.14-.09.21-.07.07-.14.12-.21.12h-7.54v1.72h6.84c.07,0,.14.05.21.11.07.07.12.14.12.21v2.65c0,.07-.03.14-.09.21-.07.07-.14.12-.21.12l-6.91.05Z"/><path class="cls-2" d="M36.78,37.88l-1.4-1.58h-.09v7.24c0,.07-.02.14-.07.21-.05.07-.12.07-.19.07h-3.63c-.07,0-.14,0-.19-.07-.05-.07-.07-.14-.07-.21v-13.41c0-.07.03-.14.07-.21s.12-.09.19-.09h3.14l5.98,6.05,1.28,1.44h.07v-7.22c0-.07.03-.14.07-.21.05-.07.12-.09.19-.09h3.63c.07,0,.14.03.19.09s.07.14.07.21v13.4c0,.07-.03.14-.07.21-.05.07-.12.09-.19.09h-3.14l-5.85-5.93Z"/><path class="cls-2" d="M55.88,37.88l-1.4-1.58h-.09v7.24c0,.07-.02.14-.07.21-.05.07-.12.07-.19.07h-3.63c-.07,0-.14,0-.19-.07-.05-.07-.07-.14-.07-.21v-13.41c0-.07.03-.14.07-.21s.12-.09.19-.09h3.14l5.98,6.05,1.28,1.44h.07v-7.22c0-.07.03-.14.07-.21.05-.07.12-.09.19-.09h3.63c.07,0,.14.03.19.09s.07.14.07.21v13.4c0,.07-.03.14-.07.21-.05.07-.12.09-.19.09h-3.14l-5.85-5.93Z"/><path class="cls-2" d="M85.97,29.87c.07,0,.14.03.19.09.05.07.07.14.07.21v13.4c0,.07-.03.14-.07.21-.05.05-.11.07-.19.07h-3.63c-.07,0-.14-.02-.19-.07-.05-.07-.07-.14-.07-.21v-7.07h-.05c-.23.49-.51.96-.86,1.42l-3.4,4.63-3.38-4.63c-.16-.21-.3-.44-.44-.68l-.33-.58-.09-.19h-.07v7.07c0,.07-.03.14-.07.21-.05.05-.12.07-.19.07h-3.63c-.07,0-.14-.03-.19-.07-.05-.07-.07-.14-.07-.21v-13.4c0-.07.02-.14.07-.21.05-.07.12-.09.19-.09h3.12c.19,0,.33.07.44.23l4.63,6.35h.05l4.63-6.35c.12-.16.25-.23.44-.23l3.07.02Z"/><path class="cls-2" d="M100.45,41.95h-6.1l-.68,1.56c-.09.21-.25.3-.49.3h-3.91c-.12,0-.19-.05-.19-.16,0-.02.02-.12.09-.28l6.26-13.52h3.91l6.26,13.52c.07.12.09.21.09.28,0,.12-.07.16-.19.16h-3.91c-.23,0-.39-.09-.49-.3l-.68-1.56ZM95.79,38.64h3.21l-.63-1.42-.91-2.65h-.14c-.35,1.19-.65,2.07-.91,2.65l-.63,1.42Z"/><path class="cls-2" d="M108.76,30.12c0-.07.02-.14.07-.21s.12-.09.19-.09h6.98c1.75,0,3.16.47,4.26,1.42,1.1.96,1.65,2.21,1.65,3.77,0,1.93-.91,3.33-2.7,4.19v.05c.21.28.4.56.56.81l2.09,3.24c.12.16.16.28.16.35,0,.12-.07.16-.23.16h-4.28c-.16,0-.28-.05-.35-.16l-2.35-3.68h-1.89v3.56c0,.07-.02.14-.07.21-.05.07-.11.07-.19.07h-3.63c-.07,0-.14,0-.19-.07-.05-.07-.07-.14-.07-.21l-.02-13.4ZM112.94,33.4v3.28h2.7c.65,0,1.16-.16,1.54-.47.37-.3.56-.7.56-1.19s-.19-.88-.56-1.19c-.37-.3-.88-.47-1.54-.47l-2.7.03Z"/><path d="M55.04,7.38c17.26,0,32.59,7.44,43.26,19.41h22.67C111.87,11.48,91.32,0,66.83,0,45.77,0,24.56,10.86,11.86,24.71,23.3,13.96,38.75,7.38,55.04,7.38Z"/><circle class="cls-1" cx="21.98" cy="48.07" r=".38"/><circle class="cls-1" cx="74.96" cy="48.07" r=".38"/></g></svg>